<svg xmlns="http://www.w3.org/2000/svg" width="19.756" height="19.756" viewBox="0 0 19.756 19.756">
  <g id="zoom-directions" transform="translate(-5.589 9.878) rotate(-45)">
    <path id="Path_420" data-name="Path 420" d="M7.965,151.02a.4.4,0,0,0-.4-.4H3.4l.667-.667a.4.4,0,0,0,0-.564l-.753-.753a.4.4,0,0,0-.565,0L.116,151.27a.4.4,0,0,0,0,.564l2.633,2.633a.4.4,0,0,0,.565,0l.753-.753a.4.4,0,0,0,0-.564l-.667-.667H7.566a.4.4,0,0,0,.4-.4V151.02Z" transform="translate(0 -140.616)" fill="#fff"/>
    <path id="Path_421" data-name="Path 421" d="M269.181,151.27l-2.633-2.633a.4.4,0,0,0-.565,0l-.753.753a.4.4,0,0,0,0,.564l.667.667h-4.165a.4.4,0,0,0-.4.4v1.064a.4.4,0,0,0,.4.4H265.9l-.667.667a.4.4,0,0,0,0,.564l.753.753a.4.4,0,0,0,.565,0l2.633-2.633A.4.4,0,0,0,269.181,151.27Z" transform="translate(-247.424 -140.616)" fill="#fff"/>
    <path id="Path_422" data-name="Path 422" d="M149.391,4.067a.4.4,0,0,0,.565,0l.667-.667V7.565a.4.4,0,0,0,.4.4h1.064a.4.4,0,0,0,.4-.4V3.4l.667.667a.4.4,0,0,0,.565,0l.753-.753a.4.4,0,0,0,0-.565L151.836.116a.4.4,0,0,0-.564,0L148.639,2.75a.4.4,0,0,0,0,.565Z" transform="translate(-140.618 0)" fill="#fff"/>
    <path id="Path_423" data-name="Path 423" d="M153.716,265.231a.4.4,0,0,0-.565,0l-.667.667v-4.165a.4.4,0,0,0-.4-.4h-1.064a.4.4,0,0,0-.4.4V265.9l-.667-.667a.4.4,0,0,0-.565,0l-.753.753a.4.4,0,0,0,0,.565l2.633,2.633a.4.4,0,0,0,.564,0l2.633-2.633a.4.4,0,0,0,0-.565Z" transform="translate(-140.617 -247.424)" fill="#fff"/>
  </g>
</svg>
