<svg xmlns="http://www.w3.org/2000/svg" width="14.291" height="17.598" viewBox="0 0 14.291 17.598">
  <g id="mute-microphone" transform="translate(-9.082)">
    <g id="Group_104" data-name="Group 104" transform="translate(9.082)">
      <path id="Path_417" data-name="Path 417" d="M43.546,45.658V43.349l-4.907,4.908a3.14,3.14,0,0,0,4.907-2.6Z" transform="translate(-33.258 -35.458)" fill="#fff"/>
      <path id="Path_418" data-name="Path 418" d="M36.15,45.715h-.626a.364.364,0,0,0-.364.364v1.28a4.059,4.059,0,0,1-6.347,3.354l-.955.955a5.32,5.32,0,0,0,2.564,1.062v.907H27.628a.364.364,0,0,0-.364.364v.626a.364.364,0,0,0,.364.364h6.943a.364.364,0,0,0,.364-.364V54a.364.364,0,0,0-.364-.364H31.776V52.73a5.492,5.492,0,0,0,4.738-5.371v-1.28A.364.364,0,0,0,36.15,45.715Z" transform="translate(-23.954 -37.393)" fill="#fff"/>
      <path id="Path_419" data-name="Path 419" d="M23.079,1.4a1,1,0,0,0-1.416,0L19.37,3.694V3.142a3.142,3.142,0,0,0-6.285,0V9.979l-.829.829a4.047,4.047,0,0,1-.09-.842V8.686a.364.364,0,0,0-.364-.364h-.626a.364.364,0,0,0-.364.364v1.28a5.249,5.249,0,0,0,.368,1.917L9.375,13.688A1,1,0,0,0,10.791,15.1L23.079,2.817A1,1,0,0,0,23.079,1.4Z" transform="translate(-9.082)" fill="#fff"/>
    </g>
  </g>
</svg>
