<svg xmlns="http://www.w3.org/2000/svg" width="15.035" height="15.036" viewBox="0 0 15.035 15.036">
  <path id="settings" d="M14.211,5.885l-1.178-.15a5.921,5.921,0,0,0-.356-.861l.727-.937a.931.931,0,0,0-.076-1.24l-.987-.987a.934.934,0,0,0-1.244-.08l-.935.727A5.9,5.9,0,0,0,9.3,2L9.151.827A.938.938,0,0,0,8.22,0h-1.4a.938.938,0,0,0-.931.825L5.736,2a5.831,5.831,0,0,0-.861.356l-.936-.727a.932.932,0,0,0-1.24.076l-.987.986a.934.934,0,0,0-.08,1.244l.727.936A5.851,5.851,0,0,0,2,5.736l-1.176.15A.938.938,0,0,0,0,6.816v1.4a.938.938,0,0,0,.825.931L2,9.3a5.92,5.92,0,0,0,.356.861l-.727.937a.931.931,0,0,0,.076,1.24l.987.987a.935.935,0,0,0,1.244.079l.936-.727a5.784,5.784,0,0,0,.861.356l.15,1.175a.938.938,0,0,0,.931.828h1.4a.938.938,0,0,0,.931-.825l.15-1.178a5.92,5.92,0,0,0,.861-.356l.937.727a.931.931,0,0,0,1.24-.076l.987-.987A.933.933,0,0,0,13.4,11.1l-.727-.936a5.784,5.784,0,0,0,.356-.861l1.175-.15a.938.938,0,0,0,.827-.931v-1.4a.937.937,0,0,0-.824-.931ZM7.518,10.65A3.132,3.132,0,1,1,10.65,7.518,3.136,3.136,0,0,1,7.518,10.65Z" fill="#fff"/>
</svg>
