<svg xmlns="http://www.w3.org/2000/svg" width="13" height="12.497" viewBox="0 0 13 12.497">
  <g id="audio" transform="translate(0 -22.586)">
    <g id="Group_97" data-name="Group 97" transform="translate(10.554 24.995)">
      <g id="Group_96" data-name="Group 96">
        <path id="Path_412" data-name="Path 412" d="M338.189,133.347a.469.469,0,1,0-.626.7,4.054,4.054,0,0,1,0,6.043.469.469,0,1,0,.626.7,4.992,4.992,0,0,0,0-7.441Z" transform="translate(-337.407 -133.228)" fill="#fff"/>
      </g>
    </g>
    <g id="Group_99" data-name="Group 99" transform="translate(0 22.586)">
      <g id="Group_98" data-name="Group 98">
        <path id="Path_413" data-name="Path 413" d="M8.22,56.281a.469.469,0,0,0-.49.04L4.085,58.995H.469A.469.469,0,0,0,0,59.464v6.031a.469.469,0,0,0,.469.469H4.085L7.73,68.637a.469.469,0,0,0,.747-.378V56.7A.469.469,0,0,0,8.22,56.281Z" transform="translate(0 -56.231)" fill="#fff"/>
      </g>
    </g>
  </g>
</svg>
